<?xml version="1.0" standalone="no"?><!DOCTYPE svg PUBLIC "-//W3C//DTD SVG 1.1//EN" "http://www.w3.org/Graphics/SVG/1.1/DTD/svg11.dtd"><svg class="icon" width="200px" height="200.00px" viewBox="0 0 1024 1024" version="1.1" xmlns="http://www.w3.org/2000/svg"><path d="M512 512m-512 0a512 512 0 1 0 1024 0 512 512 0 1 0-1024 0Z" fill="#FFFFFF" /><path d="M430.4 239.2h395.2c8 0 14.4 6.4 14.4 14.4s-6.4 14.4-14.4 14.4H430.4c-8 0-14.4-6.4-14.4-14.4 0.8-8 7.2-14.4 14.4-14.4zM175.2 239.2h33.6c8 0 14.4 6.4 14.4 14.4s-6.4 14.4-14.4 14.4h-33.6c-8 0-14.4-6.4-14.4-14.4s6.4-14.4 14.4-14.4zM430.4 328h395.2c8 0 14.4 6.4 14.4 14.4s-6.4 14.4-14.4 14.4H430.4c-8 0-14.4-6.4-14.4-14.4 0.8-8 7.2-14.4 14.4-14.4zM175.2 328h33.6c8 0 14.4 6.4 14.4 14.4s-6.4 14.4-14.4 14.4h-33.6c-8 0-14.4-6.4-14.4-14.4s6.4-14.4 14.4-14.4z" fill="#333333" /><path d="M332.8 404h-26.4c0-74.4 10.4-100 39.2-128l0.8-0.8c24-23.2 32-44 32-115.2h26.4c0 78.4-10.4 106.4-40 134.4l-0.8 0.8c-24 23.2-31.2 42.4-31.2 108.8zM262.4 404h-26.4c0-74.4 10.4-100 39.2-128l0.8-0.8c24-23.2 32-44 32-115.2h26.4c0 78.4-10.4 106.4-40 134.4l-0.8 0.8c-24 23.2-31.2 42.4-31.2 108.8z" fill="#FFB900" /><path d="M583.2 797.6v-24l12-0.8c88-4 164-64 188-148.8l35.2-124.8c0-1.6 0.8-2.4 0.8-4 0-8-6.4-13.6-13.6-13.6H186.4c-1.6 0-2.4 0-4 0.8-7.2 2.4-12 9.6-9.6 16.8L207.2 624C230.4 708 304 767.2 390.4 772.8l12 0.8v24c0 8 6.4 13.6 13.6 13.6h153.6c7.2 0 13.6-5.6 13.6-13.6z" fill="#D6F1FF" /><path d="M568.8 824H416c-14.4 0-26.4-12-26.4-26.4v-12c-92-6.4-170.4-69.6-194.4-158.4l-34.4-124.8c-1.6-6.4-0.8-13.6 3.2-20 3.2-6.4 8.8-10.4 16-12 2.4-0.8 4.8-0.8 7.2-0.8h618.4c14.4 0 26.4 12 26.4 26.4 0 2.4 0 4.8-0.8 7.2l-35.2 124.8c-25.6 90.4-105.6 153.6-199.2 158.4v12c-1.6 13.6-12.8 25.6-28 25.6zM186.4 493.6c-0.8 0-1.6 1.6-1.6 1.6l34.4 124.8c21.6 78.4 90.4 134.4 171.2 139.2l23.2 1.6v36c0 0.8 0.8 1.6 1.6 1.6h153.6c0.8 0 1.6-0.8 1.6-1.6v-36l24-0.8c83.2-4 154.4-60 176.8-140l35.2-124c0-1.6-0.8-1.6-1.6-1.6H186.4z" fill="#333333" /><path d="M796 590.4l-0.8 1.6h-600l-8-16v-27.2h608.8v41.6z" fill="#0072FF" /><path d="M568.8 824H416c-14.4 0-26.4-12-26.4-26.4v-12c-92-6.4-170.4-69.6-194.4-158.4l-34.4-124.8c-1.6-6.4-0.8-13.6 3.2-20 3.2-6.4 8.8-10.4 16-12 2.4-0.8 4.8-0.8 7.2-0.8h618.4c14.4 0 26.4 12 26.4 26.4 0 2.4 0 4.8-0.8 7.2l-35.2 124.8c-25.6 90.4-105.6 153.6-199.2 158.4v12c-1.6 13.6-12.8 25.6-28 25.6zM186.4 493.6c-0.8 0-1.6 1.6-1.6 1.6l34.4 124.8c21.6 78.4 90.4 134.4 171.2 139.2l23.2 1.6v36c0 0.8 0.8 1.6 1.6 1.6h153.6c0.8 0 1.6-0.8 1.6-1.6v-36l24-0.8c83.2-4 154.4-60 176.8-140l35.2-124c0-1.6-0.8-1.6-1.6-1.6H186.4z" fill="#333333" /></svg>