<?xml version="1.0" standalone="no"?><!DOCTYPE svg PUBLIC "-//W3C//DTD SVG 1.1//EN" "http://www.w3.org/Graphics/SVG/1.1/DTD/svg11.dtd"><svg t="1728982125771" class="icon" viewBox="0 0 1375 1024" version="1.1" xmlns="http://www.w3.org/2000/svg" p-id="6312" xmlns:xlink="http://www.w3.org/1999/xlink" width="268.5546875" height="200"><path d="M639.00848202 125.97232107h452.00892893v464.0625h-452.00892893zM1139.23169608 125.97232107h77.14285785v464.0625h-77.14285785zM524.49955392 125.97232107h77.14285702v464.0625h-77.14285701z" fill="#FFAB00" p-id="6313"></path><path d="M871.19642893 926.64285703c-57.85714298 0-104.86607107-47.00892892-104.8660719-104.86607108S813.33928595 716.91071405 871.19642893 716.91071405s104.86607107 47.00892892 104.86607107 104.8660719-48.21428595 104.86607107-104.86607108 104.86607107z m-1e-8-160.31250001c-31.33928595 0-56.65178595 25.3125-56.65178595 56.65178596s25.3125 56.65178595 56.65178595 56.65178595 56.65178595-25.3125 56.65178513-56.65178595-26.51785703-56.65178595-56.65178513-56.65178595zM520.4375 926.64285703c-57.85714298 0-104.86607107-47.00892892-104.86607107-104.86607108s47.00892892-104.86607107 104.86607107-104.8660719c57.85714298 0 104.86607107 47.00892892 104.86607107 104.8660719s-47.00892892 104.86607107-104.86607107 104.86607107z m0-160.31250001c-31.33928595 0-56.65178595 25.3125-56.65178595 56.65178596s25.3125 56.65178595 56.65178595 56.65178595 56.65178595-25.3125 56.65178595-56.65178595-25.3125-56.65178595-56.65178595-56.65178595zM976.0625 677.13392893h-542.41071405L219.09821405 147.98214297H100.97321405v-48.21428594h150.66964297l53.03571405 132.58928595h670.1785719v444.77678595z m-509.86607107-48.21428595h461.65178512V280.57142893h-602.67857108l141.02678595 348.34821405z" fill="#333333" p-id="6314"></path><path d="M378.20535703 483.55357108m0 18.08035784a18.08035703 18.08035703 0 1 0 0-36.16071486 18.08035703 18.08035703 0 1 0 0 36.16071486Z" fill="#333333" p-id="6315"></path><path d="M378.20535703 343.73214298m0 18.08035702a18.08035703 18.08035703 0 1 0 0-36.16071405 18.08035703 18.08035703 0 1 0 0 36.16071405Z" fill="#333333" p-id="6316"></path><path d="M378.20535703 389.53571405m0 18.08035703a18.08035703 18.08035703 0 1 0 0-36.16071405 18.08035703 18.08035703 0 1 0 0 36.16071405Z" fill="#333333" p-id="6317"></path><path d="M378.20535703 436.54464298m0 18.08035702a18.08035703 18.08035703 0 1 0 0-36.16071405 18.08035703 18.08035703 0 1 0 0 36.16071405Z" fill="#333333" p-id="6318"></path><path d="M425.21428595 389.53571405m0 18.08035703a18.08035703 18.08035703 0 1 0 0-36.16071405 18.08035703 18.08035703 0 1 0 0 36.16071405Z" fill="#333333" p-id="6319"></path><path d="M425.21428595 436.54464298m0 18.08035702a18.08035703 18.08035703 0 1 0 0-36.16071405 18.08035703 18.08035703 0 1 0 0 36.16071405Z" fill="#333333" p-id="6320"></path><path d="M472.22321405 389.53571405m0 18.08035703a18.08035703 18.08035703 0 1 0 0-36.16071405 18.08035703 18.08035703 0 1 0 0 36.16071405Z" fill="#333333" p-id="6321"></path><path d="M472.22321405 436.54464298m0 18.08035702a18.08035703 18.08035703 0 1 0 0-36.16071405 18.08035703 18.08035703 0 1 0 0 36.16071405Z" fill="#333333" p-id="6322"></path><path d="M472.22321405 483.55357108m0 18.08035784a18.08035703 18.08035703 0 1 0 0-36.16071486 18.08035703 18.08035703 0 1 0 0 36.16071486Z" fill="#333333" p-id="6323"></path><path d="M378.21741094 248.665625m1e-8 18.08035703a18.08035703 18.08035703 0 1 0 0-36.16071405 18.08035703 18.08035703 0 1 0 0 36.16071405Z" fill="#333333" p-id="6324"></path><path d="M378.21741094 295.67455392m1e-8 18.08035703a18.08035703 18.08035703 0 1 0 0-36.16071487 18.08035703 18.08035703 0 1 0 0 36.16071487Z" fill="#333333" p-id="6325"></path><path d="M425.22633905 248.665625m0 18.08035703a18.08035703 18.08035703 0 1 0 0-36.16071405 18.08035703 18.08035703 0 1 0 0 36.16071405Z" fill="#333333" p-id="6326"></path><path d="M425.22633905 295.67455392m0 18.08035703a18.08035703 18.08035703 0 1 0 0-36.16071487 18.08035703 18.08035703 0 1 0 0 36.16071487Z" fill="#333333" p-id="6327"></path><path d="M425.22633905 342.68348203m0 18.08035702a18.08035703 18.08035703 0 1 0 0-36.16071405 18.08035703 18.08035703 0 1 0 0 36.16071405Z" fill="#333333" p-id="6328"></path><path d="M472.23526797 248.665625m0 18.08035703a18.08035703 18.08035703 0 1 0 0-36.16071405 18.08035703 18.08035703 0 1 0 0 36.16071405Z" fill="#333333" p-id="6329"></path><path d="M472.23526797 295.67455392m0 18.08035703a18.08035703 18.08035703 0 1 0 0-36.16071487 18.08035703 18.08035703 0 1 0 0 36.16071487Z" fill="#333333" p-id="6330"></path><path d="M472.23526797 342.68348203m0 18.08035702a18.08035703 18.08035703 0 1 0 0-36.16071405 18.08035703 18.08035703 0 1 0 0 36.16071405Z" fill="#333333" p-id="6331"></path></svg>