<?xml version="1.0" standalone="no"?><!DOCTYPE svg PUBLIC "-//W3C//DTD SVG 1.1//EN" "http://www.w3.org/Graphics/SVG/1.1/DTD/svg11.dtd"><svg t="1728981962955" class="icon" viewBox="0 0 1024 1024" version="1.1" xmlns="http://www.w3.org/2000/svg" p-id="2614" xmlns:xlink="http://www.w3.org/1999/xlink" width="200" height="200"><path d="M0 512c0 282.4 229.6 512 512 512s512-229.6 512-512S794.4 0 512 0 0 229.6 0 512z" fill="#FFFFFF" p-id="2615"></path><path d="M133.6 449.6L760 797.6l-46.4-10.4C624 768 537.6 735.2 458.4 688.8l-318.4-184c-16-9.6-21.6-29.6-12-45.6-0.8-0.8 5.6-9.6 5.6-9.6z" fill="#FFFFFF" p-id="2616"></path><path d="M333.6 188l29.6 16.8c8 4 13.6 11.2 16 20l14.4 48c2.4 8.8 8 16 16 20l80.8 46.4c9.6 5.6 22.4 6.4 32.8 1.6l24.8-11.2c10.4-4.8 23.2-4 32.8 1.6l24.8 14.4c18.4 10.4 32 28 39.2 47.2 20.8 60 41.6 103.2 62.4 130.4 19.2 24.8 60 63.2 121.6 115.2 32.8 27.2 40.8 74.4 20 111.2l-4.8 8c-23.2 40-74.4 53.6-113.6 30.4L132 442.4c16-53.6 38.4-102.4 64.8-148.8 18.4-32 39.2-62.4 63.2-92 17.6-22.4 48.8-28 73.6-13.6z" fill="#D6F1FF" p-id="2617"></path><path d="M224 495.2l-92-53.6c16-52 38.4-101.6 64.8-148 11.2-20 36-15.2 66.4 22.4 5.6 6.4 7.2 15.2 4.8 24L224 495.2z" fill="#0072FF" p-id="2618"></path><path d="M556.8 333.6c41.6-6.4 87.2 57.6 102.4 96 16 40.8 32 72 48.8 92.8 19.2 24.8 60 63.2 122.4 115.2 32.8 27.2 52 56 31.2 72.8S682.4 602.4 648.8 538.4c-33.6-57.6-63.2-126.4-92-204.8z" fill="#FFFFFF" p-id="2619"></path><path d="M772.8 812zM838.4 628.8c-61.6-52-101.6-89.6-120-113.6-20-24.8-40-68-60-126.4-8-23.2-24-42.4-44.8-54.4L588 320c-12.8-8-30.4-8-44-1.6l-24.8 11.2c-6.4 3.2-14.4 2.4-20.8-0.8l-80.8-46.4c-4.8-2.4-8.8-8-9.6-12.8l-14.4-48c-4-11.2-12-21.6-22.4-27.2L340.8 176c-30.4-17.6-68-9.6-90.4 16.8-24 29.6-45.6 61.6-64.8 93.6-27.2 47.2-49.6 98.4-66.4 151.2 0 0-0.8 2.4-4.8 12.8-14.4 40-3.2 52 19.2 64.8l318.4 184c80.8 46.4 168 80 259.2 100.8l46.4 10.4h0.8c4.8 0.8 9.6 1.6 14.4 1.6 8 0 16.8-1.6 25.6-2.4 24.8-6.4 45.6-22.4 58.4-44.8l4-8c24.8-42.4 14.4-96-22.4-128zM146.4 493.6c-9.6-5.6-12.8-17.6-8-28 0 0 134.4 75.2 268.8 149.6l303.2 166.4C642.4 761.6 524.8 712 464 676.8L146.4 493.6z m691.2 249.6l-4 8c-8.8 16-24 27.2-43.2 32.8-8.8 2.4-17.6 3.2-26.4 2.4L426.4 596.8 147.2 436c15.2-47.2 36-92.8 59.2-136.8 18.4-32 39.2-62.4 62.4-90.4 13.6-17.6 38.4-22.4 57.6-11.2l29.6 17.6c4.8 3.2 8.8 8 9.6 12.8l14.4 48c4 11.2 12 21.6 22.4 27.2l80.8 46.4c12.8 8 30.4 8 44 1.6l24.8-11.2c6.4-3.2 14.4-2.4 20.8 0.8l24.8 14.4c16 8.8 28 23.2 33.6 40.8 21.6 62.4 42.4 105.6 64 133.6 20 24.8 60 63.2 124 116.8 29.6 24.8 36.8 64.8 18.4 96.8z" fill="#333333" p-id="2620"></path><path d="M582.4 495.2c-12 0-25.6-0.8-41.6-3.2-8-0.8-12.8-8-12-15.2 0.8-8 8.8-12.8 16.8-12 36.8 4 54.4 2.4 62.4 0.8 12-3.2 28-12.8 46.4-28 5.6-4.8 15.2-4 20 2.4 4.8 5.6 4 15.2-2.4 20-22.4 18.4-41.6 28.8-56.8 33.6-9.6 0-20 0.8-32.8 1.6z m12.8 47.2c-12 0-25.6-0.8-41.6-3.2-8-0.8-12.8-8-12-15.2 0.8-8 8.8-12.8 16.8-12 36.8 4 54.4 2.4 62.4 0.8 12-3.2 28-12.8 46.4-28 5.6-4.8 15.2-4 20 2.4 4.8 5.6 4 15.2-2.4 20-22.4 18.4-41.6 29.6-56.8 33.6-8.8 0-19.2 1.6-32.8 1.6zM637.6 586.4c-12 1.6-25.6 2.4-41.6 2.4-8 0-14.4-5.6-14.4-13.6s5.6-14.4 13.6-14.4c20-0.8 34.4-1.6 44-3.2 14.4-2.4 28-8 39.2-17.6 6.4-5.6 14.4-12.8 22.4-20.8 4.8-5.6 14.4-6.4 20 0 5.6 4.8 6.4 14.4 0 20-14.4 15.2-27.2 25.6-38.4 32.8-8 4.8-16.8 8.8-26.4 10.4-5.6 2.4-12 3.2-18.4 4z" fill="#333333" p-id="2621"></path></svg>